<svg width="59" height="59" viewBox="0 0 59 59" fill="none" xmlns="http://www.w3.org/2000/svg">
<path d="M43.0208 11.0625C38.2271 11.0625 33.0646 12.0458 29.5 14.75C25.9354 12.0458 20.7729 11.0625 15.9792 11.0625C11.1854 11.0625 6.02292 12.0458 2.45834 14.75V50.7646C2.45834 52.3625 4.25292 51.8708 4.30209 51.8708C7.62084 50.2729 12.4146 49.1667 15.9792 49.1667C20.7729 49.1667 25.9354 50.15 29.5 52.8542C32.8188 50.7646 38.8417 49.1667 43.0208 49.1667C47.0771 49.1667 51.2563 49.9042 54.6979 51.7479C55.7058 52.2642 56.5417 51.2808 56.5417 50.6417V14.75C52.8787 11.9967 47.6179 11.0625 43.0208 11.0625ZM51.625 45.4792C48.9208 44.6187 45.9708 44.25 43.0208 44.25C38.8417 44.25 32.8188 45.8479 29.5 47.9375V19.6667C32.8188 17.5771 38.8417 15.9792 43.0208 15.9792C45.9708 15.9792 48.9208 16.3479 51.625 17.2083V45.4792Z" fill="black"/>
</svg>
