<svg width="53" height="53" viewBox="0 0 53 53" fill="none" xmlns="http://www.w3.org/2000/svg">
<path d="M2.20834 46.375H11.0417V19.875H2.20834V46.375ZM50.7917 22.0833C50.7917 19.6542 48.8042 17.6667 46.375 17.6667H32.4404L34.5383 7.57458L34.6046 6.86791C34.6046 5.96249 34.2292 5.12333 33.6329 4.52708L31.2921 2.20833L16.7613 16.7612C15.9442 17.5562 15.4583 18.6604 15.4583 19.875V41.9583C15.4583 44.3875 17.4458 46.375 19.875 46.375H39.75C41.5829 46.375 43.1508 45.2708 43.8133 43.6808L50.4825 28.1121C50.6813 27.6042 50.7917 27.0742 50.7917 26.5V22.0833Z" fill="black"/>
</svg>
